<?xml version="1.0" encoding="iso-8859-1"?>
<!-- Generator: Adobe Illustrator 19.0.0, SVG Export Plug-In . SVG Version: 6.00 Build 0)  -->
<svg version="1.1" id="Layer_1" xmlns="http://www.w3.org/2000/svg" xmlns:xlink="http://www.w3.org/1999/xlink" x="0px" y="0px"
	 viewBox="0 0 473.931 473.931" style="enable-background:new 0 0 473.931 473.931;" xml:space="preserve">
<circle style="fill:#4ABC96;" cx="236.966" cy="236.966" r="236.966"/>
<g>
	<path style="fill:#81725B;" d="M238.724,94.906c-5.414,0-9.807,4.389-9.807,9.807v223.742c0,5.414,4.393,9.807,9.807,9.807
		s9.807-4.393,9.807-9.807V104.713C248.531,99.295,244.139,94.906,238.724,94.906z"/>
	<path style="fill:#81725B;" d="M234.691,325.571c-2.99,2.986-2.99,7.832,0,10.817l63.756,63.756c2.99,2.99,7.835,2.99,10.825,0
		s2.99-7.835,0-10.825l-63.76-63.748C242.522,322.581,237.677,322.581,234.691,325.571z"/>
	<path style="fill:#81725B;" d="M243.443,325.571c2.99,2.986,2.99,7.832,0,10.817l-63.748,63.756c-2.99,2.99-7.835,2.99-10.817,0
		c-2.997-2.99-2.997-7.835,0-10.825l63.752-63.748C235.611,322.581,240.46,322.581,243.443,325.571z"/>
</g>
<path style="fill:#383939;" d="M376.488,280.104c0,20.292-16.449,6.125-36.737,6.125H140.758c-20.288,0-36.737,14.166-36.737-6.125
	V127.037c0-20.292,16.449-9.186,36.737-9.186h198.994c20.288,0,36.737-11.106,36.737,9.186V280.104z"/>
<g>
	<path style="fill:#81725B;" d="M390.266,113.914c0,5.07-5.759,9.182-12.868,9.182H100.043c-7.102,0-12.864-4.112-12.864-9.182l0,0
		c0-5.074,5.759-9.182,12.864-9.182h277.35C384.507,104.732,390.266,108.84,390.266,113.914L390.266,113.914z"/>
	<path style="fill:#81725B;" d="M390.266,284.044c0,5.07-5.759,9.186-12.868,9.186H100.043c-7.102,0-12.864-4.116-12.864-9.186l0,0
		c0-5.07,5.759-9.182,12.864-9.182h277.35C384.507,274.862,390.266,278.971,390.266,284.044L390.266,284.044z"/>
</g>
<g>
	<path style="fill:#D7D7D7;" d="M184.839,217.755c-2.413,1.875-4.745,3.282-6.993,4.221c-2.26,0.939-4.778,1.407-7.585,1.407
		c-2.559,0-4.801-0.505-6.739-1.515c-1.938-1.01-3.427-2.383-4.479-4.112c-1.044-1.729-1.572-3.607-1.572-5.628
		c0-2.728,0.868-5.055,2.593-6.978c1.732-1.927,4.108-3.214,7.124-3.873c0.636-0.146,2.208-0.475,4.715-0.988
		c2.514-0.513,4.662-0.98,6.455-1.407c1.792-0.427,3.734-0.943,5.826-1.553c-0.116-2.63-0.651-4.561-1.587-5.792
		c-0.943-1.231-2.881-1.845-5.833-1.845c-2.529,0-4.438,0.355-5.714,1.059c-1.276,0.703-2.376,1.766-3.289,3.18
		c-0.913,1.414-1.564,2.346-1.938,2.795c-0.382,0.449-1.19,0.677-2.432,0.677c-1.119,0-2.092-0.359-2.9-1.078
		c-0.819-0.718-1.227-1.639-1.227-2.758c0-1.755,0.621-3.461,1.863-5.115c1.242-1.654,3.18-3.023,5.811-4.093
		c2.63-1.07,5.912-1.609,9.83-1.609c4.385,0,7.835,0.52,10.342,1.553c2.514,1.033,4.284,2.675,5.321,4.913
		c1.029,2.241,1.549,5.216,1.549,8.917c0,2.339-0.007,4.322-0.015,5.957c-0.015,1.635-0.03,3.446-0.06,5.444
		c0,1.875,0.314,3.828,0.935,5.863c0.621,2.036,0.928,3.345,0.928,3.929c0,1.021-0.483,1.953-1.441,2.795
		c-0.965,0.842-2.054,1.261-3.274,1.261c-1.021,0-2.032-0.483-3.035-1.444C187.024,220.977,185.965,219.581,184.839,217.755z
		 M184.181,203.324c-1.463,0.539-3.588,1.104-6.372,1.699c-2.791,0.595-4.722,1.033-5.796,1.317
		c-1.066,0.281-2.092,0.831-3.068,1.643c-0.973,0.816-1.463,1.953-1.463,3.416c0,1.508,0.576,2.795,1.717,3.854
		c1.149,1.059,2.645,1.59,4.494,1.59c1.972,0,3.794-0.427,5.467-1.298c1.665-0.864,2.892-1.979,3.667-3.341
		c0.906-1.512,1.351-3.996,1.351-7.457v-1.422H184.181z"/>
	<path style="fill:#D7D7D7;" d="M232.015,173.689v15.236c1.878-1.949,3.794-3.442,5.736-4.475c1.949-1.033,4.363-1.553,7.237-1.553
		c3.319,0,6.219,0.786,8.718,2.357c2.492,1.572,4.43,3.847,5.811,6.832c1.373,2.986,2.062,6.522,2.062,10.615
		c0,3.023-0.382,5.792-1.149,8.314c-0.767,2.522-1.886,4.707-3.349,6.559c-1.463,1.852-3.229,3.282-5.313,4.292
		c-2.084,1.01-4.378,1.515-6.892,1.515c-1.534,0-2.975-0.183-4.325-0.546c-1.351-0.363-2.507-0.849-3.457-1.444
		c-0.95-0.595-1.762-1.212-2.425-1.845c-0.674-0.632-1.557-1.583-2.653-2.851v0.988c0,1.875-0.445,3.296-1.351,4.258
		c-0.898,0.962-2.047,1.444-3.435,1.444c-1.411,0-2.537-0.483-3.375-1.444c-0.838-0.962-1.265-2.383-1.265-4.258v-43.558
		c0-2.021,0.408-3.547,1.227-4.587c0.812-1.033,1.949-1.553,3.412-1.553c1.534,0,2.72,0.494,3.543,1.482
		C231.604,170.456,232.015,171.863,232.015,173.689z M232.491,203.324c0,3.974,0.906,7.023,2.728,9.152
		c1.811,2.129,4.195,3.195,7.139,3.195c2.514,0,4.67-1.089,6.488-3.27c1.811-2.181,2.72-5.306,2.72-9.373
		c0-2.63-0.374-4.898-1.134-6.795c-0.752-1.901-1.826-3.368-3.214-4.404c-1.388-1.036-3.005-1.553-4.861-1.553
		c-1.901,0-3.588,0.52-5.078,1.553c-1.482,1.033-2.653,2.533-3.51,4.494C232.921,198.287,232.491,200.618,232.491,203.324z"/>
	<path style="fill:#D7D7D7;" d="M324.059,211.032c0,1.242-0.374,2.571-1.111,3.981c-0.745,1.414-1.878,2.758-3.398,4.037
		c-1.527,1.28-3.442,2.309-5.759,3.087c-2.309,0.778-4.917,1.171-7.82,1.171c-6.159,0-10.971-1.796-14.432-5.388
		c-3.457-3.592-5.19-8.411-5.19-14.451c0-4.093,0.797-7.712,2.376-10.851c1.587-3.143,3.873-5.571,6.87-7.289
		c2.997-1.717,6.578-2.574,10.743-2.574c2.586,0,4.954,0.378,7.109,1.134c2.155,0.756,3.981,1.729,5.482,2.922
		c1.5,1.194,2.638,2.466,3.435,3.82c0.789,1.351,1.182,2.612,1.182,3.783c0,1.194-0.445,2.204-1.328,3.035
		c-0.891,0.831-1.964,1.242-3.237,1.242c-0.827,0-1.512-0.213-2.062-0.64c-0.55-0.427-1.164-1.115-1.848-2.065
		c-1.212-1.852-2.492-3.24-3.817-4.165c-1.328-0.924-3.02-1.388-5.066-1.388c-2.945,0-5.321,1.152-7.124,3.454
		c-1.796,2.301-2.705,5.452-2.705,9.444c0,1.875,0.236,3.6,0.696,5.171c0.468,1.572,1.134,2.911,2.009,4.019
		c0.876,1.108,1.938,1.949,3.181,2.522c1.242,0.572,2.608,0.857,4.093,0.857c2.002,0,3.712-0.464,5.137-1.388
		s2.683-2.339,3.779-4.239c0.614-1.123,1.272-1.998,1.972-2.63c0.707-0.632,1.572-0.95,2.593-0.95c1.22,0,2.23,0.464,3.035,1.388
		C323.659,209.003,324.059,209.984,324.059,211.032z"/>
</g>
<g>
</g>
<g>
</g>
<g>
</g>
<g>
</g>
<g>
</g>
<g>
</g>
<g>
</g>
<g>
</g>
<g>
</g>
<g>
</g>
<g>
</g>
<g>
</g>
<g>
</g>
<g>
</g>
<g>
</g>
</svg>
